<svg width="12" height="12" viewBox="0 0 12 12" fill="none" xmlns="http://www.w3.org/2000/svg">
<path d="M7.38606 9.17202L6.61133 9.95252V6.59633C6.61133 6.4371 6.54805 6.28439 6.43542 6.17179C6.32279 6.0592 6.17004 5.99594 6.01076 5.99594C5.85148 5.99594 5.69872 6.0592 5.58609 6.17179C5.47346 6.28439 5.41019 6.4371 5.41019 6.59633V9.95252L4.63545 9.17202C4.57946 9.11604 4.51298 9.07163 4.43982 9.04133C4.36665 9.01104 4.28824 8.99544 4.20905 8.99544C4.12986 8.99544 4.05144 9.01104 3.97828 9.04133C3.90512 9.07163 3.83864 9.11604 3.78264 9.17202C3.72665 9.22799 3.68223 9.29445 3.65193 9.36759C3.62162 9.44073 3.60602 9.51912 3.60602 9.59829C3.60602 9.67746 3.62162 9.75585 3.65193 9.82899C3.68223 9.90213 3.72665 9.96859 3.78264 10.0246L5.58435 11.8257C5.64147 11.8804 5.70882 11.9233 5.78254 11.9518C5.85443 11.9836 5.93216 12 6.01076 12C6.08935 12 6.16708 11.9836 6.23897 11.9518C6.31269 11.9233 6.38004 11.8804 6.43716 11.8257L8.23887 10.0246C8.35196 9.91151 8.41549 9.75818 8.41549 9.59829C8.41549 9.43841 8.35196 9.28507 8.23887 9.17202C8.12578 9.05896 7.9724 8.99544 7.81246 8.99544C7.65253 8.99544 7.49915 9.05896 7.38606 9.17202ZM9.86641 2.52568C9.49946 1.68273 8.86615 0.983315 8.06354 0.534612C7.26093 0.0859089 6.3333 -0.0873308 5.42278 0.0414395C4.51226 0.17021 3.66909 0.593886 3.02248 1.24755C2.37586 1.90121 1.96147 2.74879 1.84281 3.66042C1.27022 3.7975 0.767922 4.14003 0.431312 4.62296C0.0947031 5.10589 -0.0527784 5.69558 0.0168753 6.28006C0.086529 6.86453 0.368467 7.40308 0.809148 7.79343C1.24983 8.18378 1.81856 8.39875 2.40734 8.39751C2.56662 8.39751 2.71938 8.33425 2.83201 8.22166C2.94464 8.10906 3.00791 7.95635 3.00791 7.79712C3.00791 7.63788 2.94464 7.48517 2.83201 7.37258C2.71938 7.25998 2.56662 7.19672 2.40734 7.19672C2.08878 7.19672 1.78327 7.07021 1.55801 6.84502C1.33275 6.61983 1.2062 6.31441 1.2062 5.99594C1.2062 5.67747 1.33275 5.37205 1.55801 5.14686C1.78327 4.92167 2.08878 4.79516 2.40734 4.79516C2.56662 4.79516 2.71938 4.7319 2.83201 4.61931C2.94464 4.50671 3.00791 4.354 3.00791 4.19477C3.00945 3.48467 3.26272 2.79811 3.72275 2.25705C4.18278 1.716 4.81976 1.35548 5.52054 1.23956C6.22132 1.12364 6.94052 1.25981 7.55036 1.62389C8.1602 1.98797 8.62119 2.55638 8.85145 3.22813C8.88578 3.33131 8.94749 3.42322 9.02999 3.49407C9.11249 3.56491 9.21269 3.61203 9.31989 3.6304C9.71991 3.70597 10.0825 3.91474 10.3487 4.2227C10.6148 4.53066 10.7688 4.91965 10.7855 5.32629C10.8022 5.73292 10.6807 6.13323 10.4407 6.46198C10.2008 6.79074 9.85649 7.02856 9.46403 7.13669C9.38753 7.1564 9.31566 7.19098 9.25252 7.23846C9.18939 7.28593 9.13623 7.34538 9.09608 7.4134C9.05592 7.48141 9.02956 7.55667 9.01851 7.63487C9.00745 7.71307 9.0119 7.79268 9.03162 7.86916C9.05134 7.94564 9.08593 8.01749 9.13342 8.08061C9.18091 8.14372 9.24037 8.19687 9.30841 8.23701C9.37645 8.27715 9.45173 8.3035 9.52995 8.31455C9.60817 8.32561 9.68781 8.32116 9.76431 8.30145C10.3963 8.13448 10.9566 7.76589 11.36 7.25164C11.7634 6.73739 11.988 6.10558 11.9995 5.45215C12.0111 4.79872 11.809 4.15937 11.424 3.63119C11.039 3.10301 10.4921 2.71486 9.86641 2.52568Z" fill="black"/>
</svg>
